<svg width="161" height="49" viewBox="0 0 161 49" fill="none" xmlns="http://www.w3.org/2000/svg">
<path d="M22.5 2.28809C10.3497 2.28809 0.5 12.1378 0.5 24.2881C0.5 36.4384 10.3497 46.2881 22.5 46.2881C33.401 46.2881 42.4502 38.3597 44.1958 27.9548H44.0379C42.4098 34.2806 36.6674 38.9548 29.8333 38.9548C21.7332 38.9548 15.1667 32.3883 15.1667 24.2881C15.1667 16.1879 21.7332 9.62142 29.8333 9.62142C36.6674 9.62142 42.4098 14.2956 44.0379 20.6214H44.1958C42.4502 10.2165 33.401 2.28809 22.5 2.28809Z" fill="#A4BCFD"/>
<path d="M0.5 24.2881C0.5 12.1378 10.3497 2.28809 22.5 2.28809C33.401 2.28809 42.4502 10.2165 44.1958 20.6214H29.3713C27.7431 14.2956 22.0007 9.62142 15.1667 9.62142C7.06649 9.62142 0.5 16.1879 0.5 24.2881Z" fill="#3538CD"/>
<path d="M0.5 24.2881C0.5 36.4384 10.3497 46.2881 22.5 46.2881C33.401 46.2881 42.4502 38.3597 44.1958 27.9548H29.3713C27.7431 34.2806 22.0007 38.9548 15.1667 38.9548C7.06649 38.9548 0.5 32.3883 0.5 24.2881Z" fill="#3538CD"/>
<path d="M75.9396 20.7956C75.3132 16.2715 71.8331 13.6465 67.3189 13.6465C61.9993 13.6465 57.9922 17.5243 57.9922 24.1067C57.9922 30.6792 61.9496 34.5669 67.3189 34.5669C72.1612 34.5669 75.3729 31.4348 75.9396 27.5471L72.2209 27.5272C71.7535 29.9135 69.8047 31.2559 67.3686 31.2559C64.0675 31.2559 61.701 28.78 61.701 24.1067C61.701 19.513 64.0476 16.9576 67.3785 16.9576C69.8544 16.9576 71.7933 18.3596 72.2209 20.7956H75.9396Z" fill="#101828"/>
<path d="M83.5536 34.5968C85.9499 34.5968 87.3817 33.4732 88.038 32.1905H88.1573V34.2885H91.6175V24.0669C91.6175 20.03 88.3263 18.8169 85.413 18.8169C82.2013 18.8169 79.7354 20.2488 78.94 23.0328L82.3008 23.5101C82.6587 22.4661 83.6729 21.5712 85.4329 21.5712C87.1033 21.5712 88.0181 22.4263 88.0181 23.9277V23.9874C88.0181 25.0215 86.9343 25.0712 84.2397 25.3596C81.2766 25.6777 78.4428 26.5627 78.4428 30.003C78.4428 33.0059 80.6403 34.5968 83.5536 34.5968ZM84.4883 31.9519C82.9869 31.9519 81.913 31.2658 81.913 29.9434C81.913 28.5613 83.1161 27.9846 84.7269 27.7559C85.6715 27.6266 87.5607 27.388 88.028 27.0101V28.8098C88.028 30.5101 86.6559 31.9519 84.4883 31.9519Z" fill="#101828"/>
<path d="M102.863 19.0158H99.8505V15.3567H96.2511V19.0158H94.0834V21.7999H96.2511V30.2914C96.2312 33.165 98.3192 34.5769 101.024 34.4973C102.048 34.4675 102.754 34.2686 103.142 34.1394L102.535 31.3255C102.336 31.3752 101.929 31.4647 101.481 31.4647C100.576 31.4647 99.8505 31.1465 99.8505 29.6948V21.7999H102.863V19.0158Z" fill="#101828"/>
<path d="M110.268 34.5968C112.665 34.5968 114.097 33.4732 114.753 32.1905H114.872V34.2885H118.332V24.0669C118.332 20.03 115.041 18.8169 112.128 18.8169C108.916 18.8169 106.45 20.2488 105.655 23.0328L109.016 23.5101C109.374 22.4661 110.388 21.5712 112.148 21.5712C113.818 21.5712 114.733 22.4263 114.733 23.9277V23.9874C114.733 25.0215 113.649 25.0712 110.955 25.3596C107.991 25.6777 105.158 26.5627 105.158 30.003C105.158 33.0059 107.355 34.5968 110.268 34.5968ZM111.203 31.9519C109.702 31.9519 108.628 31.2658 108.628 29.9434C108.628 28.5613 109.831 27.9846 111.442 27.7559C112.386 27.6266 114.276 27.388 114.743 27.0101V28.8098C114.743 30.5101 113.371 31.9519 111.203 31.9519Z" fill="#101828"/>
<path d="M125.551 13.9249H121.952V34.2885H125.551V13.9249Z" fill="#101828"/>
<path d="M135.914 34.5868C140.389 34.5868 143.233 31.4348 143.233 26.7118C143.233 21.9789 140.389 18.8169 135.914 18.8169C131.44 18.8169 128.596 21.9789 128.596 26.7118C128.596 31.4348 131.44 34.5868 135.914 34.5868ZM135.934 31.7033C133.458 31.7033 132.245 29.4959 132.245 26.7019C132.245 23.9078 133.458 21.6706 135.934 21.6706C138.37 21.6706 139.583 23.9078 139.583 26.7019C139.583 29.4959 138.37 31.7033 135.934 31.7033Z" fill="#101828"/>
<path d="M152.93 40.334C157.056 40.334 160.099 38.4448 160.099 34.5371V19.0158H156.549V21.5414H156.35C155.803 20.4377 154.66 18.8169 151.965 18.8169C148.435 18.8169 145.661 21.5811 145.661 26.6025C145.661 31.584 148.435 34.0698 151.955 34.0698C154.57 34.0698 155.793 32.6678 156.35 31.5442H156.529V34.4377C156.529 36.6848 155.038 37.6096 152.989 37.6096C150.822 37.6096 149.867 36.5854 149.43 35.6905L146.188 36.476C146.844 38.6138 149.042 40.334 152.93 40.334ZM152.959 31.2459C150.583 31.2459 149.33 29.3965 149.33 26.5826C149.33 23.8084 150.563 21.7701 152.959 21.7701C155.276 21.7701 156.549 23.6891 156.549 26.5826C156.549 29.4959 155.256 31.2459 152.959 31.2459Z" fill="#101828"/>
</svg>
