<svg width="184" height="49" viewBox="0 0 184 49" fill="none" xmlns="http://www.w3.org/2000/svg">
<path d="M16.2151 33.7165C24.8939 33.7165 31.9294 26.681 31.9294 18.0022C31.9294 17.0186 31.839 16.0562 31.6661 15.1226C30.7326 14.9497 29.7701 14.8594 28.7865 14.8594C20.1078 14.8594 13.0723 21.8949 13.0723 30.5737C13.0723 31.5573 13.1626 32.5197 13.3355 33.4533C14.269 33.6262 15.2315 33.7165 16.2151 33.7165Z" fill="#175CD3"/>
<path fill-rule="evenodd" clip-rule="evenodd" d="M13.3347 33.4534C6.03118 32.1008 0.5 25.6975 0.5 18.0024C0.5 9.32361 7.53553 2.28809 16.2143 2.28809C23.9095 2.28809 30.3128 7.81926 31.6653 15.1228C30.7318 14.9499 29.7693 14.8595 28.7857 14.8595C20.107 14.8595 13.0714 21.895 13.0714 30.5738C13.0714 31.5574 13.1618 32.5199 13.3347 33.4534Z" fill="#1570EF"/>
<path fill-rule="evenodd" clip-rule="evenodd" d="M16.2136 33.7169C24.8924 33.7169 31.9279 26.6814 31.9279 18.0027C31.9279 17.0191 31.8375 16.0566 31.6646 15.123C38.9681 16.4756 44.4993 22.8789 44.4993 30.5741C44.4993 39.2528 37.4638 46.2884 28.785 46.2884C21.0899 46.2884 14.6866 40.7572 13.334 33.4537C14.2675 33.6266 15.23 33.7169 16.2136 33.7169Z" fill="#2E90FA"/>
<path d="M74.7284 29.1923C74.1684 31.0029 73.1884 32.3563 71.7884 33.2523C70.3884 34.1296 68.755 34.5683 66.8884 34.5683C65.059 34.5683 63.4724 34.1856 62.1284 33.4203C60.803 32.6549 59.7764 31.5629 59.0484 30.1442C58.339 28.7256 57.9844 27.0269 57.9844 25.0483C57.9844 23.0696 58.3484 21.3709 59.0764 19.9523C59.8044 18.5336 60.831 17.4416 62.1564 16.6763C63.4817 15.9109 65.0404 15.5283 66.8324 15.5283C68.7177 15.5283 70.3324 15.9296 71.6764 16.7323C73.039 17.5163 73.9724 18.7109 74.4764 20.3163L70.9764 21.8003C70.659 20.6803 70.1737 19.8869 69.5204 19.4203C68.867 18.9349 68.027 18.6923 67.0004 18.6923C65.4697 18.6923 64.247 19.2429 63.3324 20.3443C62.4364 21.4269 61.9884 22.9949 61.9884 25.0483C61.9884 27.0829 62.4177 28.6509 63.2764 29.7523C64.135 30.8536 65.3764 31.4043 67.0004 31.4043C68.0084 31.4043 68.8764 31.1336 69.6044 30.5923C70.351 30.0509 70.8737 29.2296 71.1724 28.1283L74.7284 29.1923Z" fill="#101828"/>
<path d="M79.5617 18.2723C77.975 18.2723 77.1817 17.5909 77.1817 16.2282C77.1817 14.8469 77.975 14.1562 79.5617 14.1562C81.1483 14.1562 81.9417 14.8469 81.9417 16.2282C81.9417 17.5909 81.1483 18.2723 79.5617 18.2723ZM81.4657 20.2883V34.2883H77.6297V20.2883H81.4657Z" fill="#101828"/>
<path d="M85.532 34.2883V20.2883H88.864L89.116 23.0323C89.4707 22.0803 90.0027 21.3429 90.712 20.8202C91.44 20.2789 92.3547 20.0082 93.456 20.0082C94.1093 20.0082 94.6133 20.1109 94.968 20.3163L94.52 23.5363C94.3333 23.4803 94.1 23.4336 93.82 23.3962C93.5587 23.3403 93.2133 23.3123 92.784 23.3123C92.2053 23.3123 91.6547 23.4523 91.132 23.7323C90.628 23.9936 90.208 24.4043 89.872 24.9643C89.536 25.5056 89.368 26.1962 89.368 27.0363V34.2883H85.532Z" fill="#101828"/>
<path d="M103.427 20.0082C105.294 20.0082 106.74 20.4096 107.767 21.2123C108.812 22.0149 109.503 22.9856 109.839 24.1243L106.255 25.4123C105.882 23.7136 104.958 22.8643 103.483 22.8643C102.419 22.8643 101.588 23.2376 100.991 23.9843C100.412 24.7309 100.123 25.8416 100.123 27.3163C100.123 28.8096 100.422 29.9203 101.019 30.6483C101.635 31.3576 102.466 31.7123 103.511 31.7123C105.135 31.7123 106.106 30.8816 106.423 29.2203L109.895 30.3403C109.578 31.5909 108.868 32.6083 107.767 33.3923C106.684 34.1763 105.275 34.5683 103.539 34.5683C102.083 34.5683 100.804 34.2789 99.703 33.7003C98.6204 33.1216 97.7804 32.2909 97.1831 31.2083C96.5857 30.1256 96.2871 28.8189 96.2871 27.2883C96.2871 25.7576 96.5857 24.4509 97.1831 23.3683C97.799 22.2856 98.639 21.4549 99.703 20.8763C100.786 20.2976 102.027 20.0082 103.427 20.0082Z" fill="#101828"/>
<path d="M119.26 20.0082C120.66 20.0082 121.901 20.2976 122.984 20.8763C124.066 21.4549 124.906 22.2856 125.504 23.3683C126.12 24.4509 126.428 25.7576 126.428 27.2883C126.428 28.8189 126.12 30.1256 125.504 31.2083C124.906 32.2909 124.066 33.1216 122.984 33.7003C121.901 34.2789 120.66 34.5683 119.26 34.5683C117.841 34.5683 116.59 34.2789 115.508 33.7003C114.444 33.1216 113.604 32.2909 112.988 31.2083C112.39 30.1256 112.092 28.8189 112.092 27.2883C112.092 25.7576 112.39 24.4509 112.988 23.3683C113.604 22.2856 114.444 21.4549 115.508 20.8763C116.59 20.2976 117.841 20.0082 119.26 20.0082ZM119.26 22.8643C118.214 22.8643 117.393 23.2376 116.796 23.9843C116.217 24.7122 115.928 25.8136 115.928 27.2883C115.928 28.7629 116.217 29.8736 116.796 30.6203C117.393 31.3483 118.214 31.7123 119.26 31.7123C120.286 31.7123 121.089 31.3483 121.668 30.6203C122.265 29.8736 122.564 28.7629 122.564 27.2883C122.564 25.8136 122.265 24.7122 121.668 23.9843C121.089 23.2376 120.286 22.8643 119.26 22.8643Z" fill="#101828"/>
<path d="M136.021 20.0082C137.421 20.0082 138.663 20.2976 139.745 20.8763C140.828 21.4549 141.668 22.2856 142.265 23.3683C142.881 24.4509 143.189 25.7576 143.189 27.2883C143.189 28.8189 142.881 30.1256 142.265 31.2083C141.668 32.2909 140.828 33.1216 139.745 33.7003C138.663 34.2789 137.421 34.5683 136.021 34.5683C134.603 34.5683 133.352 34.2789 132.269 33.7003C131.205 33.1216 130.365 32.2909 129.749 31.2083C129.152 30.1256 128.853 28.8189 128.853 27.2883C128.853 25.7576 129.152 24.4509 129.749 23.3683C130.365 22.2856 131.205 21.4549 132.269 20.8763C133.352 20.2976 134.603 20.0082 136.021 20.0082ZM136.021 22.8643C134.976 22.8643 134.155 23.2376 133.557 23.9843C132.979 24.7122 132.689 25.8136 132.689 27.2883C132.689 28.7629 132.979 29.8736 133.557 30.6203C134.155 31.3483 134.976 31.7123 136.021 31.7123C137.048 31.7123 137.851 31.3483 138.429 30.6203C139.027 29.8736 139.325 28.7629 139.325 27.2883C139.325 25.8136 139.027 24.7122 138.429 23.9843C137.851 23.2376 137.048 22.8643 136.021 22.8643Z" fill="#101828"/>
<path d="M150.179 14.1562V29.9763C150.179 30.6296 150.291 31.0869 150.515 31.3483C150.739 31.6096 151.112 31.7403 151.635 31.7403C151.952 31.7403 152.214 31.7216 152.419 31.6843C152.625 31.6469 152.886 31.5723 153.203 31.4603L152.867 33.9803C152.55 34.1669 152.148 34.3069 151.663 34.4003C151.196 34.5123 150.73 34.5683 150.263 34.5683C148.9 34.5683 147.902 34.2416 147.267 33.5883C146.651 32.9163 146.343 31.8523 146.343 30.3963V14.1562H150.179Z" fill="#101828"/>
<path d="M161.837 34.5683C159.634 34.5683 157.87 33.9336 156.545 32.6643C155.219 31.3763 154.557 29.5843 154.557 27.2883C154.557 25.7576 154.855 24.4509 155.453 23.3683C156.05 22.2856 156.881 21.4549 157.945 20.8763C159.027 20.2976 160.259 20.0082 161.641 20.0082C163.059 20.0082 164.263 20.2976 165.253 20.8763C166.242 21.4363 166.998 22.2109 167.521 23.2002C168.043 24.1709 168.305 25.2816 168.305 26.5323C168.305 26.9056 168.295 27.2603 168.277 27.5963C168.258 27.9323 168.23 28.2309 168.193 28.4922H158.309C158.458 29.5749 158.831 30.3869 159.429 30.9283C160.045 31.4509 160.838 31.7123 161.809 31.7123C162.63 31.7123 163.293 31.5536 163.797 31.2363C164.301 30.9189 164.693 30.4803 164.973 29.9203L168.025 31.0963C167.577 32.1976 166.793 33.0563 165.673 33.6723C164.553 34.2696 163.274 34.5683 161.837 34.5683ZM161.613 22.8363C159.802 22.8363 158.71 23.8349 158.337 25.8323H164.637C164.525 24.8616 164.207 24.1243 163.685 23.6203C163.181 23.0976 162.49 22.8363 161.613 22.8363Z" fill="#101828"/>
<path d="M177.155 34.5683C175.737 34.5683 174.439 34.3163 173.263 33.8123C172.106 33.3083 171.163 32.5989 170.435 31.6843L172.647 29.4443C173.095 30.1163 173.693 30.6669 174.439 31.0963C175.186 31.5256 176.073 31.7403 177.099 31.7403C177.827 31.7403 178.406 31.6376 178.835 31.4323C179.283 31.2083 179.507 30.8629 179.507 30.3963C179.507 30.0976 179.405 29.8456 179.199 29.6403C178.994 29.4163 178.583 29.2389 177.967 29.1083L175.503 28.6043C173.879 28.2683 172.722 27.7643 172.031 27.0923C171.359 26.4016 171.023 25.5149 171.023 24.4323C171.023 23.6669 171.247 22.9482 171.695 22.2762C172.162 21.6042 172.853 21.0629 173.767 20.6523C174.682 20.2229 175.821 20.0082 177.183 20.0082C180.021 20.0082 182.055 20.8762 183.287 22.6123L180.991 24.8523C180.581 24.1989 180.039 23.7043 179.367 23.3683C178.714 23.0136 178.023 22.8363 177.295 22.8363C175.653 22.8363 174.831 23.2936 174.831 24.2083C174.831 24.5069 174.962 24.7683 175.223 24.9923C175.485 25.1976 175.961 25.3749 176.651 25.5243L179.507 26.1123C180.889 26.3923 181.878 26.8682 182.475 27.5402C183.073 28.1936 183.371 28.9869 183.371 29.9203C183.371 31.2643 182.83 32.3749 181.747 33.2523C180.683 34.1296 179.153 34.5683 177.155 34.5683Z" fill="#101828"/>
</svg>
