<svg width="147" height="49" viewBox="0 0 147 49" fill="none" xmlns="http://www.w3.org/2000/svg">
<path d="M13.7768 22.6064C14.599 19.5381 17.7529 16.3842 20.8212 15.5619L39.9502 10.4356C43.0185 9.61331 44.8392 11.4341 44.0169 14.5023L38.8906 33.6313C38.0683 36.6996 34.9144 39.8535 31.8461 40.6757L12.7172 45.8021C9.6489 46.6244 7.82815 44.8036 8.65042 41.7354L13.7768 22.6064Z" fill="#9E77ED"/>
<path d="M6.10882 14.9374C6.93108 11.8692 10.085 8.71526 13.1533 7.89299L32.2822 2.76663C35.3505 1.94436 37.1713 3.76511 36.349 6.83338L31.2226 25.9624C30.4004 29.0306 27.2465 32.1845 24.1782 33.0068L5.0492 38.1332C1.98093 38.9554 0.160184 37.1347 0.982448 34.0664L6.10882 14.9374Z" fill="#6941C6"/>
<path d="M61.7916 31.7121H68.3716V34.2881H58.5996V14.8281H61.7916V31.7121Z" fill="#101828"/>
<path d="M69.977 26.5041C69.977 24.9548 70.2943 23.5828 70.929 22.3881C71.5823 21.1935 72.4597 20.2695 73.561 19.6161C74.681 18.9441 75.913 18.6081 77.257 18.6081C78.4703 18.6081 79.525 18.8508 80.421 19.3361C81.3357 19.8028 82.0637 20.3908 82.605 21.1001V18.8601H85.825V34.2881H82.605V31.9921C82.0637 32.7201 81.3263 33.3268 80.393 33.8121C79.4597 34.2975 78.3957 34.5401 77.201 34.5401C75.8757 34.5401 74.6623 34.2041 73.561 33.5321C72.4597 32.8415 71.5823 31.8895 70.929 30.6761C70.2943 29.4441 69.977 28.0535 69.977 26.5041ZM82.605 26.5601C82.605 25.4961 82.381 24.5721 81.933 23.7881C81.5037 23.0041 80.9343 22.4068 80.225 21.9961C79.5157 21.5855 78.7503 21.3801 77.929 21.3801C77.1077 21.3801 76.3423 21.5855 75.633 21.9961C74.9237 22.3881 74.345 22.9761 73.897 23.7601C73.4677 24.5255 73.253 25.4401 73.253 26.5041C73.253 27.5681 73.4677 28.5015 73.897 29.3041C74.345 30.1068 74.9237 30.7228 75.633 31.1521C76.361 31.5628 77.1263 31.7681 77.929 31.7681C78.7503 31.7681 79.5157 31.5628 80.225 31.1521C80.9343 30.7415 81.5037 30.1441 81.933 29.3601C82.381 28.5575 82.605 27.6241 82.605 26.5601Z" fill="#101828"/>
<path d="M103.906 18.8601L94.4416 41.5401H91.1376L94.2736 34.0361L88.1976 18.8601H91.7536L96.0936 30.6201L100.602 18.8601H103.906Z" fill="#101828"/>
<path d="M120.454 26.1961C120.454 26.7748 120.417 27.2975 120.342 27.7641H108.554C108.648 28.9961 109.105 29.9855 109.926 30.7321C110.748 31.4788 111.756 31.8521 112.95 31.8521C114.668 31.8521 115.881 31.1335 116.59 29.6961H120.034C119.568 31.1148 118.718 32.2815 117.486 33.1961C116.273 34.0921 114.761 34.5401 112.95 34.5401C111.476 34.5401 110.15 34.2135 108.974 33.5601C107.817 32.8881 106.902 31.9548 106.23 30.7601C105.577 29.5468 105.25 28.1468 105.25 26.5601C105.25 24.9735 105.568 23.5828 106.202 22.3881C106.856 21.1748 107.761 20.2415 108.918 19.5881C110.094 18.9348 111.438 18.6081 112.95 18.6081C114.406 18.6081 115.704 18.9255 116.842 19.5601C117.981 20.1948 118.868 21.0908 119.502 22.2481C120.137 23.3868 120.454 24.7028 120.454 26.1961ZM117.122 25.1881C117.104 24.0121 116.684 23.0695 115.862 22.3601C115.041 21.6508 114.024 21.2961 112.81 21.2961C111.709 21.2961 110.766 21.6508 109.982 22.3601C109.198 23.0508 108.732 23.9935 108.582 25.1881H117.122Z" fill="#101828"/>
<path d="M126.788 21.1001C127.254 20.3161 127.87 19.7095 128.636 19.2801C129.42 18.8321 130.344 18.6081 131.408 18.6081V21.9121H130.596C129.345 21.9121 128.393 22.2295 127.74 22.8641C127.105 23.4988 126.788 24.6001 126.788 26.1681V34.2881H123.596V18.8601H126.788V21.1001Z" fill="#101828"/>
<path d="M139.942 34.5401C138.728 34.5401 137.636 34.3255 136.666 33.8961C135.714 33.4481 134.958 32.8508 134.398 32.1041C133.838 31.3388 133.539 30.4895 133.502 29.5561H136.806C136.862 30.2095 137.17 30.7601 137.73 31.2081C138.308 31.6375 139.027 31.8521 139.886 31.8521C140.782 31.8521 141.472 31.6841 141.958 31.3481C142.462 30.9935 142.714 30.5455 142.714 30.0041C142.714 29.4255 142.434 28.9961 141.874 28.7161C141.332 28.4361 140.464 28.1281 139.27 27.7921C138.112 27.4748 137.17 27.1668 136.442 26.8681C135.714 26.5695 135.079 26.1121 134.538 25.4961C134.015 24.8801 133.754 24.0681 133.754 23.0601C133.754 22.2388 133.996 21.4921 134.482 20.8201C134.967 20.1295 135.658 19.5881 136.554 19.1961C137.468 18.8041 138.514 18.6081 139.69 18.6081C141.444 18.6081 142.854 19.0561 143.918 19.9521C145 20.8295 145.579 22.0335 145.654 23.5641H142.462C142.406 22.8735 142.126 22.3228 141.622 21.9121C141.118 21.5015 140.436 21.2961 139.578 21.2961C138.738 21.2961 138.094 21.4548 137.646 21.7721C137.198 22.0895 136.974 22.5095 136.974 23.0321C136.974 23.4428 137.123 23.7881 137.422 24.0681C137.72 24.3481 138.084 24.5721 138.514 24.7401C138.943 24.8895 139.578 25.0855 140.418 25.3281C141.538 25.6268 142.452 25.9348 143.162 26.2521C143.89 26.5508 144.515 26.9988 145.038 27.5961C145.56 28.1935 145.831 28.9868 145.85 29.9761C145.85 30.8535 145.607 31.6375 145.122 32.3281C144.636 33.0188 143.946 33.5601 143.05 33.9521C142.172 34.3441 141.136 34.5401 139.942 34.5401Z" fill="#101828"/>
</svg>
