<svg width="188" height="49" viewBox="0 0 188 49" fill="none" xmlns="http://www.w3.org/2000/svg">
<path fill-rule="evenodd" clip-rule="evenodd" d="M22.5 36.7548C29.3851 36.7548 34.9667 31.1732 34.9667 24.2881C34.9667 17.4029 29.3851 11.8214 22.5 11.8214C15.6148 11.8214 10.0333 17.4029 10.0333 24.2881C10.0333 31.1732 15.6148 36.7548 22.5 36.7548ZM22.5 46.2881C34.6503 46.2881 44.5 36.4384 44.5 24.2881C44.5 12.1378 34.6503 2.28809 22.5 2.28809C10.3497 2.28809 0.5 12.1378 0.5 24.2881C0.5 36.4384 10.3497 46.2881 22.5 46.2881Z" fill="#6938EF"/>
<path d="M22.752 24.7695C25.0431 22.4784 28.7577 22.4784 31.0488 24.7695L42.4567 36.1774C44.7478 38.4685 44.7478 42.1831 42.4567 44.4742C40.1657 46.7652 36.4511 46.7652 34.16 44.4742L22.752 33.0662C20.461 30.7751 20.461 27.0605 22.752 24.7695Z" fill="#F670C7"/>
<path d="M25.9551 36.2696L33.2004 43.515C36.6756 41.5768 39.5709 38.7238 41.5605 35.2817L34.3746 28.0957C33.1124 32.0351 29.9441 35.1215 25.9551 36.2696Z" fill="#6519BA"/>
<path d="M80.0198 36.388C79.3851 37.172 78.6105 37.7693 77.6958 38.18C76.7998 38.5906 75.8105 38.796 74.7278 38.796C73.2718 38.796 71.9558 38.4786 70.7798 37.844C69.6038 37.228 68.2598 36.1266 66.7478 34.54C64.9745 34.316 63.3878 33.7466 61.9878 32.832C60.6065 31.9173 59.5238 30.7413 58.7398 29.304C57.9745 27.848 57.5918 26.2426 57.5918 24.488C57.5918 22.5653 58.0491 20.8386 58.9638 19.308C59.8971 17.7586 61.1758 16.5453 62.7998 15.668C64.4425 14.7906 66.2811 14.352 68.3158 14.352C70.3505 14.352 72.1798 14.7906 73.8038 15.668C75.4278 16.5453 76.7065 17.7586 77.6398 19.308C78.5731 20.8386 79.0398 22.5653 79.0398 24.488C79.0398 26.7653 78.3958 28.7626 77.1078 30.48C75.8385 32.1973 74.1491 33.392 72.0398 34.064C72.5065 34.5493 72.9545 34.8946 73.3838 35.1C73.8318 35.324 74.3078 35.436 74.8118 35.436C76.0251 35.436 77.0891 34.9506 78.0038 33.98L80.0198 36.388ZM62.1838 24.488C62.1838 25.7013 62.4451 26.784 62.9678 27.736C63.5091 28.688 64.2465 29.4346 65.1798 29.976C66.1131 30.4986 67.1585 30.76 68.3158 30.76C69.4731 30.76 70.5185 30.4986 71.4518 29.976C72.3851 29.4346 73.1131 28.688 73.6358 27.736C74.1771 26.784 74.4478 25.7013 74.4478 24.488C74.4478 23.2746 74.1771 22.192 73.6358 21.24C73.1131 20.288 72.3851 19.5506 71.4518 19.028C70.5185 18.4866 69.4731 18.216 68.3158 18.216C67.1585 18.216 66.1131 18.4866 65.1798 19.028C64.2465 19.5506 63.5091 20.288 62.9678 21.24C62.4451 22.192 62.1838 23.2746 62.1838 24.488Z" fill="#101828"/>
<path d="M97.3168 19.224V34.288H93.1728V32.496C92.5941 33.1493 91.9035 33.6533 91.1008 34.008C90.2981 34.344 89.4301 34.512 88.4968 34.512C86.5181 34.512 84.9501 33.9426 83.7928 32.804C82.6355 31.6653 82.0568 29.976 82.0568 27.736V19.224H86.4248V27.092C86.4248 29.5186 87.4421 30.732 89.4768 30.732C90.5221 30.732 91.3621 30.396 91.9968 29.724C92.6315 29.0333 92.9488 28.016 92.9488 26.672V19.224H97.3168Z" fill="#101828"/>
<path d="M108.531 34.512C106.945 34.512 105.517 34.1853 104.247 33.532C102.997 32.86 102.017 31.936 101.307 30.76C100.598 29.584 100.243 28.2493 100.243 26.756C100.243 25.2626 100.598 23.928 101.307 22.752C102.017 21.576 102.997 20.6613 104.247 20.008C105.517 19.336 106.945 19 108.531 19C110.118 19 111.537 19.336 112.787 20.008C114.038 20.6613 115.018 21.576 115.727 22.752C116.437 23.928 116.791 25.2626 116.791 26.756C116.791 28.2493 116.437 29.584 115.727 30.76C115.018 31.936 114.038 32.86 112.787 33.532C111.537 34.1853 110.118 34.512 108.531 34.512ZM108.531 30.928C109.651 30.928 110.566 30.5546 111.275 29.808C112.003 29.0426 112.367 28.0253 112.367 26.756C112.367 25.4866 112.003 24.4786 111.275 23.732C110.566 22.9666 109.651 22.584 108.531 22.584C107.411 22.584 106.487 22.9666 105.759 23.732C105.031 24.4786 104.667 25.4866 104.667 26.756C104.667 28.0253 105.031 29.0426 105.759 29.808C106.487 30.5546 107.411 30.928 108.531 30.928Z" fill="#101828"/>
<path d="M129.427 33.56C128.998 33.8773 128.466 34.12 127.831 34.288C127.215 34.4373 126.562 34.512 125.871 34.512C124.079 34.512 122.688 34.0546 121.699 33.14C120.728 32.2253 120.243 30.8813 120.243 29.108V22.92H117.919V19.56H120.243V15.892H124.611V19.56H128.363V22.92H124.611V29.052C124.611 29.6866 124.77 30.1813 125.087 30.536C125.423 30.872 125.89 31.04 126.487 31.04C127.178 31.04 127.766 30.8533 128.251 30.48L129.427 33.56Z" fill="#101828"/>
<path d="M131.879 19.224H136.247V34.288H131.879V19.224ZM134.063 17.124C133.26 17.124 132.607 16.8906 132.103 16.424C131.599 15.9573 131.347 15.3786 131.347 14.688C131.347 13.9973 131.599 13.4186 132.103 12.952C132.607 12.4853 133.26 12.252 134.063 12.252C134.866 12.252 135.519 12.476 136.023 12.924C136.527 13.372 136.779 13.932 136.779 14.604C136.779 15.332 136.527 15.9386 136.023 16.424C135.519 16.8906 134.866 17.124 134.063 17.124Z" fill="#101828"/>
<path d="M155.057 26.812C155.057 26.868 155.029 27.26 154.973 27.988H143.577C143.782 28.9213 144.268 29.6586 145.033 30.2C145.798 30.7413 146.75 31.012 147.889 31.012C148.673 31.012 149.364 30.9 149.961 30.676C150.577 30.4333 151.146 30.06 151.669 29.556L153.993 32.076C152.574 33.7 150.502 34.512 147.777 34.512C146.078 34.512 144.576 34.1853 143.269 33.532C141.962 32.86 140.954 31.936 140.245 30.76C139.536 29.584 139.181 28.2493 139.181 26.756C139.181 25.2813 139.526 23.956 140.217 22.78C140.926 21.5853 141.888 20.6613 143.101 20.008C144.333 19.336 145.705 19 147.217 19C148.692 19 150.026 19.3173 151.221 19.952C152.416 20.5866 153.349 21.5013 154.021 22.696C154.712 23.872 155.057 25.244 155.057 26.812ZM147.245 22.304C146.256 22.304 145.425 22.584 144.753 23.144C144.081 23.704 143.67 24.4693 143.521 25.44H150.941C150.792 24.488 150.381 23.732 149.709 23.172C149.037 22.5933 148.216 22.304 147.245 22.304Z" fill="#101828"/>
<path d="M167.121 19C168.988 19 170.49 19.56 171.629 20.68C172.786 21.8 173.365 23.4613 173.365 25.664V34.288H168.997V26.336C168.997 25.1413 168.736 24.2546 168.213 23.676C167.69 23.0786 166.934 22.78 165.945 22.78C164.844 22.78 163.966 23.1253 163.313 23.816C162.66 24.488 162.333 25.496 162.333 26.84V34.288H157.965V19.224H162.137V20.988C162.716 20.3533 163.434 19.868 164.293 19.532C165.152 19.1773 166.094 19 167.121 19Z" fill="#101828"/>
<path d="M187.04 33.56C186.611 33.8773 186.079 34.12 185.444 34.288C184.828 34.4373 184.175 34.512 183.484 34.512C181.692 34.512 180.302 34.0546 179.312 33.14C178.342 32.2253 177.856 30.8813 177.856 29.108V22.92H175.532V19.56H177.856V15.892H182.224V19.56H185.976V22.92H182.224V29.052C182.224 29.6866 182.383 30.1813 182.7 30.536C183.036 30.872 183.503 31.04 184.1 31.04C184.791 31.04 185.379 30.8533 185.864 30.48L187.04 33.56Z" fill="#101828"/>
</svg>
