<svg width="170" height="49" viewBox="0 0 170 49" fill="none" xmlns="http://www.w3.org/2000/svg">
<rect x="0.5" y="19.4883" width="9.59998" height="9.59999" fill="#039855"/>
<rect x="29.3008" y="29.0879" width="9.6" height="9.59999" transform="rotate(180 29.3008 29.0879)" fill="#027A48"/>
<path d="M10.0996 19.4877L19.6996 9.8877V19.4877L10.0996 29.0877V19.4877Z" fill="#A6F4C5"/>
<path d="M19.6992 29.0885L10.0992 38.6885L10.0992 29.0885L19.6992 19.4885L19.6992 29.0885Z" fill="#6CE9A6"/>
<path d="M0.5 19.4881L19.7 0.288086V9.88807L10.1 19.4881H0.5Z" fill="#32D583"/>
<path d="M29.3008 29.0881L10.1008 48.2881L10.1008 38.6881L19.7008 29.0881L29.3008 29.0881Z" fill="#12B76A"/>
<path d="M50.2085 34.5679C48.6965 34.5679 47.2311 34.3532 45.8125 33.9239C44.4125 33.4945 43.3018 32.9252 42.4805 32.2159L43.7405 29.3879C44.5431 30.0225 45.5231 30.5452 46.6805 30.9559C47.8565 31.3479 49.0325 31.5439 50.2085 31.5439C51.6645 31.5439 52.7471 31.3105 53.4565 30.8439C54.1845 30.3772 54.5485 29.7612 54.5485 28.9959C54.5485 28.4359 54.3431 27.9785 53.9325 27.6239C53.5405 27.2505 53.0365 26.9612 52.4205 26.7559C51.8045 26.5505 50.9645 26.3172 49.9005 26.0559C48.4071 25.7012 47.1938 25.3465 46.2605 24.9919C45.3458 24.6372 44.5525 24.0865 43.8805 23.3399C43.2271 22.5745 42.9005 21.5479 42.9005 20.2599C42.9005 19.1772 43.1898 18.1972 43.7685 17.3199C44.3658 16.4239 45.2525 15.7145 46.4285 15.1919C47.6231 14.6692 49.0791 14.4079 50.7965 14.4079C51.9911 14.4079 53.1671 14.5572 54.3245 14.8559C55.4818 15.1545 56.4805 15.5839 57.3205 16.1439L56.1725 18.9719C55.3138 18.4679 54.4178 18.0852 53.4845 17.8239C52.5511 17.5625 51.6458 17.4319 50.7685 17.4319C49.3311 17.4319 48.2578 17.6745 47.5485 18.1599C46.8578 18.6452 46.5125 19.2892 46.5125 20.0919C46.5125 20.6519 46.7085 21.1092 47.1005 21.4639C47.5111 21.8185 48.0245 22.0985 48.6405 22.3039C49.2565 22.5092 50.0965 22.7425 51.1605 23.0039C52.6165 23.3399 53.8111 23.6945 54.7445 24.0679C55.6778 24.4225 56.4711 24.9732 57.1245 25.7199C57.7965 26.4665 58.1325 27.4745 58.1325 28.7439C58.1325 29.8265 57.8338 30.8065 57.2365 31.6839C56.6578 32.5612 55.7711 33.2612 54.5765 33.7839C53.3818 34.3065 51.9258 34.5679 50.2085 34.5679Z" fill="#101828"/>
<path d="M61.4058 19.3359H64.9058V34.2879H61.4058V19.3359ZM63.1698 16.8719C62.5352 16.8719 62.0032 16.6759 61.5738 16.2839C61.1445 15.8732 60.9298 15.3692 60.9298 14.7719C60.9298 14.1745 61.1445 13.6799 61.5738 13.2879C62.0032 12.8772 62.5352 12.6719 63.1698 12.6719C63.8045 12.6719 64.3365 12.8679 64.7658 13.2599C65.1952 13.6332 65.4098 14.1092 65.4098 14.6879C65.4098 15.3039 65.1952 15.8265 64.7658 16.2559C64.3552 16.6665 63.8232 16.8719 63.1698 16.8719Z" fill="#101828"/>
<path d="M74.1196 34.4839C72.9062 34.4839 71.7209 34.3252 70.5636 34.0079C69.4062 33.6905 68.4823 33.2892 67.7916 32.8039L69.1356 30.1439C69.8076 30.5919 70.6102 30.9559 71.5436 31.2359C72.4956 31.4972 73.4289 31.6279 74.3436 31.6279C76.4342 31.6279 77.4796 31.0772 77.4796 29.9759C77.4796 29.4532 77.2089 29.0892 76.6676 28.8839C76.1449 28.6785 75.2956 28.4825 74.1196 28.2959C72.8876 28.1092 71.8796 27.8945 71.0956 27.6519C70.3302 27.4092 69.6582 26.9892 69.0796 26.3919C68.5196 25.7759 68.2396 24.9265 68.2396 23.8439C68.2396 22.4252 68.8276 21.2959 70.0036 20.4559C71.1982 19.5972 72.8036 19.1679 74.8196 19.1679C75.8462 19.1679 76.8729 19.2892 77.8996 19.5319C78.9262 19.7559 79.7662 20.0639 80.4196 20.4559L79.0756 23.1159C77.8062 22.3692 76.3782 21.9959 74.7916 21.9959C73.7649 21.9959 72.9809 22.1545 72.4396 22.4719C71.9169 22.7705 71.6556 23.1719 71.6556 23.6759C71.6556 24.2359 71.9356 24.6372 72.4956 24.8799C73.0742 25.1039 73.9609 25.3185 75.1556 25.5239C76.3502 25.7105 77.3302 25.9252 78.0956 26.1679C78.8609 26.4105 79.5142 26.8212 80.0556 27.3999C80.6156 27.9785 80.8956 28.7999 80.8956 29.8639C80.8956 31.2639 80.2889 32.3839 79.0756 33.2239C77.8622 34.0639 76.2102 34.4839 74.1196 34.4839Z" fill="#101828"/>
<path d="M97.6363 19.3359L90.6363 35.4919C89.983 37.1159 89.1896 38.2545 88.2563 38.9079C87.323 39.5799 86.1936 39.9159 84.8683 39.9159C84.1216 39.9159 83.3843 39.7945 82.6563 39.5519C81.9283 39.3092 81.331 38.9732 80.8643 38.5439L82.2643 35.9679C82.6003 36.2852 82.9923 36.5372 83.4403 36.7239C83.907 36.9105 84.3736 37.0039 84.8403 37.0039C85.4563 37.0039 85.9603 36.8452 86.3523 36.5279C86.763 36.2105 87.1363 35.6785 87.4723 34.9319L87.7243 34.3439L81.2003 19.3359H84.8403L89.5443 30.3959L94.2763 19.3359H97.6363Z" fill="#101828"/>
<path d="M108.112 19.1679C109.568 19.1679 110.865 19.4852 112.004 20.1199C113.161 20.7545 114.066 21.6505 114.72 22.8079C115.373 23.9652 115.7 25.2999 115.7 26.8119C115.7 28.3239 115.373 29.6679 114.72 30.8439C114.066 32.0012 113.161 32.8972 112.004 33.5319C110.865 34.1665 109.568 34.4839 108.112 34.4839C106.096 34.4839 104.5 33.8119 103.324 32.4679V39.7199H99.8238V19.3359H103.156V21.2959C103.734 20.5865 104.444 20.0545 105.284 19.6999C106.142 19.3452 107.085 19.1679 108.112 19.1679ZM107.72 31.4879C109.008 31.4879 110.062 31.0585 110.884 30.1999C111.724 29.3412 112.144 28.2119 112.144 26.8119C112.144 25.4119 111.724 24.2825 110.884 23.4239C110.062 22.5652 109.008 22.1359 107.72 22.1359C106.88 22.1359 106.124 22.3319 105.452 22.7239C104.78 23.0972 104.248 23.6385 103.856 24.3479C103.464 25.0572 103.268 25.8785 103.268 26.8119C103.268 27.7452 103.464 28.5665 103.856 29.2759C104.248 29.9852 104.78 30.5359 105.452 30.9279C106.124 31.3012 106.88 31.4879 107.72 31.4879Z" fill="#101828"/>
<path d="M127.503 19.1679C129.388 19.1679 130.9 19.7185 132.039 20.8199C133.178 21.9212 133.747 23.5545 133.747 25.7199V34.2879H130.247V26.1679C130.247 24.8612 129.939 23.8812 129.323 23.2279C128.707 22.5559 127.83 22.2199 126.691 22.2199C125.403 22.2199 124.386 22.6119 123.639 23.3959C122.892 24.1612 122.519 25.2719 122.519 26.7279V34.2879H119.019V13.5119H122.519V21.0719C123.098 20.4559 123.807 19.9892 124.647 19.6719C125.506 19.3359 126.458 19.1679 127.503 19.1679Z" fill="#101828"/>
<path d="M152.663 19.3359V34.2879H149.331V32.3839C148.771 33.0559 148.071 33.5785 147.231 33.9519C146.391 34.3065 145.486 34.4839 144.515 34.4839C142.518 34.4839 140.94 33.9332 139.783 32.8319C138.644 31.7119 138.075 30.0599 138.075 27.8759V19.3359H141.575V27.3999C141.575 28.7439 141.874 29.7519 142.471 30.4239C143.087 31.0772 143.955 31.4039 145.075 31.4039C146.326 31.4039 147.315 31.0212 148.043 30.2559C148.79 29.4719 149.163 28.3519 149.163 26.8959V19.3359H152.663Z" fill="#101828"/>
<path d="M161.866 34.4839C160.652 34.4839 159.467 34.3252 158.31 34.0079C157.152 33.6905 156.228 33.2892 155.538 32.8039L156.882 30.1439C157.554 30.5919 158.356 30.9559 159.29 31.2359C160.242 31.4972 161.175 31.6279 162.09 31.6279C164.18 31.6279 165.226 31.0772 165.226 29.9759C165.226 29.4532 164.955 29.0892 164.414 28.8839C163.891 28.6785 163.042 28.4825 161.866 28.2959C160.634 28.1092 159.626 27.8945 158.842 27.6519C158.076 27.4092 157.404 26.9892 156.826 26.3919C156.266 25.7759 155.986 24.9265 155.986 23.8439C155.986 22.4252 156.574 21.2959 157.75 20.4559C158.944 19.5972 160.55 19.1679 162.566 19.1679C163.592 19.1679 164.619 19.2892 165.646 19.5319C166.672 19.7559 167.512 20.0639 168.166 20.4559L166.822 23.1159C165.552 22.3692 164.124 21.9959 162.538 21.9959C161.511 21.9959 160.727 22.1545 160.186 22.4719C159.663 22.7705 159.402 23.1719 159.402 23.6759C159.402 24.2359 159.682 24.6372 160.242 24.8799C160.82 25.1039 161.707 25.3185 162.902 25.5239C164.096 25.7105 165.076 25.9252 165.842 26.1679C166.607 26.4105 167.26 26.8212 167.802 27.3999C168.362 27.9785 168.642 28.7999 168.642 29.8639C168.642 31.2639 168.035 32.3839 166.822 33.2239C165.608 34.0639 163.956 34.4839 161.866 34.4839Z" fill="#101828"/>
</svg>
